<svg width="22" height="22" viewBox="0 0 22 22" fill="none" xmlns="http://www.w3.org/2000/svg">
<path d="M11 13.3422L2.80228 21.5399C2.49556 21.8466 2.1052 22 1.63118 22C1.15716 22 0.766793 21.8466 0.460075 21.5399C0.153358 21.2332 0 20.8428 0 20.3688C0 19.8948 0.153358 19.5044 0.460075 19.1977L8.65779 11L0.460075 2.80228C0.153358 2.49556 0 2.1052 0 1.63118C0 1.15716 0.153358 0.766793 0.460075 0.460075C0.766793 0.153358 1.15716 0 1.63118 0C2.1052 0 2.49556 0.153358 2.80228 0.460075L11 8.65779L19.1977 0.460075C19.5044 0.153358 19.8948 0 20.3688 0C20.8428 0 21.2332 0.153358 21.5399 0.460075C21.8466 0.766793 22 1.15716 22 1.63118C22 2.1052 21.8466 2.49556 21.5399 2.80228L13.3422 11L21.5399 19.1977C21.8466 19.5044 22 19.8948 22 20.3688C22 20.8428 21.8466 21.2332 21.5399 21.5399C21.2332 21.8466 20.8428 22 20.3688 22C19.8948 22 19.5044 21.8466 19.1977 21.5399L11 13.3422Z" fill="white"/>
</svg>
